<svg xmlns="http://www.w3.org/2000/svg" viewBox="0 0 500 320" fill="#fefefe" opacity=".15"><path d="M55,105.11a1.25,1.25,0,0,0,1.25-1.25V96.56a4.38,4.38,0,0,1,4.43-4.32H98.58A4.38,4.38,0,0,1,103,96.56v17.61H62.93a3,3,0,0,0-3,2.94v1.64a21.8,21.8,0,0,0-2.24-8.5,8.56,8.56,0,0,0-7.58-4.4,8.34,8.34,0,0,0-4.47,1.27A3.58,3.58,0,0,0,44,111a3.47,3.47,0,0,0,2.77,3.07c.72.17,1.46.22,2.22.33.13,3.16.15,6.3.43,9.42.33,3.68.75,7.36,1.42,11,.28,1.52.46,3.57,2.77,3.57l.48,0v3.14h5.15v-3.08h88.95v3.16h5.24s-.1-2.47-.1-3.32a3.45,3.45,0,0,0,.76.09c1.36,0,1.86-1.05,2.25-2.23a8.37,8.37,0,0,0,.43-1.52c.47-3.59,1-7.17,1.33-10.77.28-3.11.29-6.25.43-9.45.72-.09,1.36-.12,2-.25a3.58,3.58,0,0,0,3-3.23,3.53,3.53,0,0,0-2.09-4,9.93,9.93,0,0,0-4.38-.94,15.21,15.21,0,0,0-1.81.11,6.31,6.31,0,0,0-4.16,2.29c-2.23,2.62-2.94,5.82-3.38,9.09-.06.45-.11.91-.15,1.37V117.1a3,3,0,0,0-3-2.94H105.51V96.56a4.32,4.32,0,0,1,4.3-4.32H147a4.32,4.32,0,0,1,4.3,4.32v7.31a1.25,1.25,0,0,0,2.5,0V96.56a6.82,6.82,0,0,0-6.8-6.82H109.81a6.79,6.79,0,0,0-5.57,2.91,7,7,0,0,0-5.67-2.91H60.69a6.88,6.88,0,0,0-6.93,6.82v7.31A1.25,1.25,0,0,0,55,105.11ZM148.5,125.2a2.5,2.5,0,0,0,1.29-2c0-.63.09-1.24.13-1.84.08-1.24.15-2.42.3-3.55.43-3.21,1.07-5.77,2.8-7.8a3.81,3.81,0,0,1,2.56-1.42,12.79,12.79,0,0,1,1.51-.1,7.44,7.44,0,0,1,3.3.69c.59.28.81.54.7,1.4a1.11,1.11,0,0,1-1,1.12c-.3.06-.65.1-1.06.14l-.73.08a2.5,2.5,0,0,0-2.2,2.38c0,1-.07,2-.1,3-.07,2.2-.13,4.28-.32,6.37-.24,2.68-.61,5.43-1,8.08q-.18,1.29-.35,2.58a5,5,0,0,1-.22.75l-.1.3c-.07.21-.13.36-.17.47a2.5,2.5,0,0,0-3,2.46c0,.21,0,.49,0,.82h-.16v-.66a2.5,2.5,0,0,0-2.5-2.5H59.26a2.5,2.5,0,0,0-2.5,2.5V139h-.15v-.64a2.5,2.5,0,0,0-2.5-2.5h-.47a8.38,8.38,0,0,1-.26-1.17l-.06-.36c-.56-3-1-6.35-1.39-10.75-.19-2.08-.25-4.16-.32-6.36,0-1-.06-2-.1-2.94a2.5,2.5,0,0,0-2.14-2.37l-.76-.1a11.9,11.9,0,0,1-1.24-.19c-.43-.1-.74-.23-.87-1s.13-1.14.53-1.39a5.85,5.85,0,0,1,3.13-.88,6.07,6.07,0,0,1,5.37,3.07,20.25,20.25,0,0,1,2,8.48c0,.65,0,1.34,0,2.14,0,.42,0,.86,0,1.33a2.5,2.5,0,0,0,3.77,2.15c2-1.15,3.92-1.38,6.65-1.38h40.89c9.63,0,26.15,0,28.51,0h2.94a11.66,11.66,0,0,1,5.8,1.08,2.5,2.5,0,0,0,2.38,0Zm-3.87-8.53a.46.46,0,0,1,.46.44v5a18,18,0,0,0-4.77-.51l-2.7,0H68a18.19,18.19,0,0,0-5.51.67V117.1a.46.46,0,0,1,.46-.44Z"/><path d="M233.61,78.41l-3.24-12.29a1.25,1.25,0,0,0-.89-.89L217.2,62a1.25,1.25,0,0,0-1.2.32l-7.05,7-7-7a1.25,1.25,0,0,0-1.2-.33L188.4,65.24a1.25,1.25,0,0,0-.89.89l-3.24,12.29a1.25,1.25,0,0,0,.33,1.2l7,7-7,7a1.25,1.25,0,0,0-.33,1.21l3.24,12.37a1.25,1.25,0,0,0,.89.89l12.37,3.24A1.25,1.25,0,0,0,202,111l7-7,7.05,7a1.25,1.25,0,0,0,.88.36,1.27,1.27,0,0,0,.32,0l12.29-3.24a1.25,1.25,0,0,0,.89-.89l3.24-12.37a1.25,1.25,0,0,0-.33-1.2l-7-7,7-7.05A1.25,1.25,0,0,0,233.61,78.41Zm-46.75-.06,2.87-10.89,11-2.88,6.46,6.46L193.41,84.9Zm13.85,30.38-11-2.87-2.87-11,6.54-6.46,13.77,13.85Zm8.23-8.23L195.18,86.67l13.77-13.84,13.84,13.84ZM231,94.9l-2.88,11-10.89,2.87-6.53-6.46,13.84-13.84Zm-6.46-10L210.71,71.06l6.53-6.46,10.89,2.87L231,78.36Z"/><path d="M417.54,234.73l-3.24-12.29a1.25,1.25,0,0,0-.89-.89l-12.29-3.24a1.25,1.25,0,0,0-1.2.32l-7.05,7-7-7a1.25,1.25,0,0,0-1.2-.33l-12.37,3.24a1.25,1.25,0,0,0-.89.89l-3.24,12.29a1.25,1.25,0,0,0,.33,1.2l7,7-7,7a1.25,1.25,0,0,0-.33,1.21l3.24,12.37a1.25,1.25,0,0,0,.89.89l12.37,3.24a1.25,1.25,0,0,0,1.2-.33l7-7,7.05,7a1.25,1.25,0,0,0,.88.36,1.27,1.27,0,0,0,.32,0l12.29-3.24a1.25,1.25,0,0,0,.89-.89l3.24-12.37a1.25,1.25,0,0,0-.33-1.2l-7-7,7-7.05A1.25,1.25,0,0,0,417.54,234.73Zm-46.75-.06,2.87-10.89,11-2.88,6.46,6.46-13.76,13.84Zm13.85,30.38-11-2.87-2.87-11,6.54-6.46L391.1,258.6Zm8.23-8.23L379.1,243l13.77-13.84L406.71,243Zm22.07-5.62-2.88,11-10.89,2.87-6.53-6.46,13.84-13.84Zm-6.46-10-13.84-13.84,6.53-6.46,10.89,2.87,2.87,10.89Z"/><path d="M318.17,289.8c3.35-5.58,5-24.44,5.11-25.18a6,6,0,0,0-5.2-6.78l-1-.13c-4.48-13.39-17.83-15.14-29.05-15.14s-24.51,1.74-29,15l-1.81.24a6,6,0,0,0-5.2,6.75c.09.81,2.14,19.8,5.51,25.45,1,1.75,4.23,3.68,6.05,4.3a24.93,24.93,0,0,0,3.72.89l-1.52,9.38a1.25,1.25,0,0,0,1,1.43l.2,0a1.25,1.25,0,0,0,1.23-1l1.53-9.44a130.7,130.7,0,0,0,13.93.4h4.21l3.65,0,4.2,0a82.8,82.8,0,0,0,10.54-.52l1.54,9.52a1.25,1.25,0,0,0,1.23,1l.2,0a1.25,1.25,0,0,0,1-1.43l-1.54-9.52a20.4,20.4,0,0,0,3.45-1C313.66,293.48,317.06,291.65,318.17,289.8ZM288,245.06c15,0,23,3.78,26.38,12.55l-.08,0-.57.13-.22.07-.42.15-.23.1-.41.21-.19.11a6.11,6.11,0,0,0-.57.38q-.24.18-.46.39a6,6,0,0,0-1.86,3.61l-1.3,9.36a6.93,6.93,0,0,0-3.91-1.21H271.6a7,7,0,0,0-4.38,1.55l-1.35-9.7a6.06,6.06,0,0,0-.17-.8l0-.16a6.06,6.06,0,0,0-4.09-4C264.86,248.88,272.88,245.06,288,245.06Zm-20.49,31a4.5,4.5,0,0,1,4.08-2.61h32.57a4.48,4.48,0,0,1,3.81,2.13h0a4.49,4.49,0,0,1-3.82,6.87H271.6a4.48,4.48,0,0,1-4.08-6.37Zm24,17.45-3.66,0h-4.23c-7.52,0-14.62.07-19.32-1.51-1.49-.5-4.09-2.18-4.7-3.21-3.09-5.18-5.15-24.24-5.17-24.46a3.54,3.54,0,0,1,3-4l1.91-.25a3.47,3.47,0,0,1,.45,0h0a3.53,3.53,0,0,1,1.25.24h0a3.56,3.56,0,0,1,.54.26l.06,0a3.58,3.58,0,0,1,.43.32l.1.1a3.57,3.57,0,0,1,.33.34l.14.19a2.49,2.49,0,0,1,.38.67c0,.08.08.16.1.24a3.56,3.56,0,0,1,.16.67h0l1.64,12.4a6.86,6.86,0,0,0-.44,2.4,7,7,0,0,0,7,7h32.57a7,7,0,0,0,6.17-10.3l1.53-11.52a3.54,3.54,0,0,1,4-3l1.91.25a3.56,3.56,0,0,1,3,4c-.46,5.29-2.23,19.94-4.77,24.17-.58,1-3.08,2.55-4.78,3.24C306.65,293.61,299.32,293.55,291.55,293.48Z"/><path d="M297.88,264.36l.22.11a.86.86,0,0,0,.23.07,1,1,0,0,0,.25,0,1,1,0,0,0,.24,0,.88.88,0,0,0,.23-.07l.22-.11.19-.16a1.25,1.25,0,0,0,.36-.88,1.08,1.08,0,0,0,0-.25,1.56,1.56,0,0,0-.07-.23,1,1,0,0,0-.12-.22l-.15-.19a1.36,1.36,0,0,0-.19-.15.93.93,0,0,0-.22-.12l-.23-.07a1.33,1.33,0,0,0-.49,0l-.23.07a.91.91,0,0,0-.22.12,1.37,1.37,0,0,0-.19.15,1.28,1.28,0,0,0-.15.19,1,1,0,0,0-.12.22,1.56,1.56,0,0,0-.07.23,1,1,0,0,0,0,.25,1.26,1.26,0,0,0,.37.88Z"/><path d="M287.31,264.36l.22.11a1,1,0,0,0,.23.07,1.07,1.07,0,0,0,.25,0,1,1,0,0,0,.24,0,1.09,1.09,0,0,0,.24-.07l.21-.11.19-.16a1.25,1.25,0,0,0,.36-.88,1.29,1.29,0,0,0-.36-.89,1.31,1.31,0,0,0-1.77,0,1.29,1.29,0,0,0-.36.89,1.25,1.25,0,0,0,.36.88Z"/><path d="M276.75,264.36l.21.11a1.09,1.09,0,0,0,.24.07,1,1,0,0,0,.24,0,1.26,1.26,0,0,0,.88-.37,1.42,1.42,0,0,0,.16-.19,2.23,2.23,0,0,0,.11-.21,1.1,1.1,0,0,0,.08-.24,1.81,1.81,0,0,0,0-.24,1.26,1.26,0,0,0-.37-.89,1,1,0,0,0-.19-.15.87.87,0,0,0-.21-.12l-.24-.07a1.28,1.28,0,0,0-.48,0l-.24.07a.88.88,0,0,0-.21.12,1,1,0,0,0-.19.15,1.26,1.26,0,0,0-.37.89,1.22,1.22,0,0,0,.37.88A1,1,0,0,0,276.75,264.36Z"/><path d="M297.42,254.09a.9.9,0,0,0,.12.21,1,1,0,0,0,.15.2l.19.15a1.48,1.48,0,0,0,.22.12l.23.07.25,0,.24,0,.23-.07a1.53,1.53,0,0,0,.22-.12l.19-.15a1.44,1.44,0,0,0,.15-.2.9.9,0,0,0,.12-.21c0-.08,0-.16.07-.23a1.13,1.13,0,0,0,0-.25,1.25,1.25,0,0,0-.36-.88l-.19-.16-.22-.11a.88.88,0,0,0-.23-.07,1,1,0,0,0-.49,0,.86.86,0,0,0-.23.07l-.22.11a1.4,1.4,0,0,0-.19.16,1.26,1.26,0,0,0-.37.88,1.11,1.11,0,0,0,0,.25C297.37,253.93,297.39,254,297.42,254.09Z"/><path d="M287.31,254.65l.22.11a1.05,1.05,0,0,0,.23.08l.25,0,.24,0a1.13,1.13,0,0,0,.24-.08l.21-.11.19-.16a1.26,1.26,0,0,0,0-1.76,1.29,1.29,0,0,0-1.77,0,1.26,1.26,0,0,0,0,1.76Z"/><path d="M277.44,254.86l.24,0a1.1,1.1,0,0,0,.24-.08l.21-.11a1.56,1.56,0,0,0,.19-.15,1.26,1.26,0,0,0,.37-.89,1.22,1.22,0,0,0-.37-.88,1,1,0,0,0-.19-.16l-.21-.11a1.07,1.07,0,0,0-.24-.07,1.25,1.25,0,0,0-1.49,1.22,1.25,1.25,0,0,0,1.25,1.25Z"/><path d="M458.35,273.92a1.25,1.25,0,0,0,0,2.5h16.88a1.25,1.25,0,0,0,0-2.5H468V257.1h3v4.07a3.11,3.11,0,1,0,2.5,0V257.1H480a1.25,1.25,0,0,0,1.23-1.46l-3.87-23a1.25,1.25,0,0,0-1.23-1H457.37a1.25,1.25,0,0,0-1.23,1l-3.82,23a1.25,1.25,0,0,0,1.23,1.45h12v16.82Zm14-9.29a.61.61,0,1,1,.62-.61A.62.62,0,0,1,472.33,264.63Zm-17.3-10,3.4-20.5h16.66l3.45,20.5H455Z"/><path d="M123.75,44.53h1.5V54.74A1.25,1.25,0,0,0,126.51,56h3.08V57.4a1.25,1.25,0,0,0,1.25,1.25h12.9v6.7c-7.68.45-9.81,4.45-10.35,6a2.47,2.47,0,1,0,2.33.91c.22-.74,1.59-4,8.19-4.41v4.33a1.21,1.21,0,0,0,.06.32,2.46,2.46,0,1,0,2.37,0,1.21,1.21,0,0,0,.06-.32V67.84c7.17.4,7.86,4.2,7.88,4.35v0a2.46,2.46,0,1,0,2.36-.86c-.43-1.51-2.34-5.69-10.42-6V58.65h12.9a1.25,1.25,0,0,0,1.25-1.25V56H163a1.25,1.25,0,0,0,1.25-1.25V44.53h1.21a1.25,1.25,0,0,0,0-2.5H160.5a1.23,1.23,0,0,0-1.21,1.07l-3.4-27.19a1.25,1.25,0,0,0-1.24-1.1H135.26a1.25,1.25,0,0,0-1.24,1.1l-3.94,32a1.25,1.25,0,0,0,1.24,1.4h12.41v1.54h-12.9a1.25,1.25,0,0,0-1.25,1.25v1.41h-1.83v-9h.91a1.25,1.25,0,0,0,0-2.5h-4.92a1.25,1.25,0,0,0,0,2.5Zm35.83,4.35a1.25,1.25,0,0,0,.3-1l-.51-4.09a1.24,1.24,0,0,0,1.12.72h1.21v9h-1.32V52.09a1.25,1.25,0,0,0-1.25-1.25h-12.9V49.3h12.41A1.25,1.25,0,0,0,159.59,48.88ZM132.73,46.8l3.63-29.49h17.18l3.68,29.49h-24.5Zm-.65,6.54h25.81v2.82H132.08V53.34Z"/><path d="M-63.34,228.92a1.25,1.25,0,0,0,1.25-1.25v-5.11H22.09v5.11a1.25,1.25,0,0,0,2.5,0V206.32a1.25,1.25,0,0,0-2.5,0v5.82H-36a1.23,1.23,0,0,0,.55-1c0-6-6.84-6-13.47-6.07-3.7,0-6.71,0-9,.65A5.64,5.64,0,0,0-62.09,209v-17.7a1.25,1.25,0,0,0-1.25-1.25,1.25,1.25,0,0,0-1.25,1.25v36.34A1.25,1.25,0,0,0-63.34,228.92Zm85.42-14.29v5.42H-62.09v-5.42Zm-82-3.58c0-1.14.33-2.29,2.69-2.93,2.15-.58,5.44-.57,8.35-.56,7.47,0,11,.38,11,3.56a1.23,1.23,0,0,0,.55,1H-60.61A1.24,1.24,0,0,0-59.94,211.05Zm-1.83,1.08h-.31v-.22A1.25,1.25,0,0,0-61.77,212.14Z"/><path d="M436.66,228.92a1.25,1.25,0,0,0,1.25-1.25v-5.11h84.17v5.11a1.25,1.25,0,0,0,2.5,0V206.32a1.25,1.25,0,0,0-2.5,0v5.82H464a1.23,1.23,0,0,0,.55-1c0-6-6.84-6-13.47-6.07-3.7,0-6.71,0-9,.65a5.64,5.64,0,0,0-4.18,3.32v-17.7a1.25,1.25,0,1,0-2.5,0v36.34A1.25,1.25,0,0,0,436.66,228.92Zm85.42-14.29v5.42H437.91v-5.42Zm-82-3.58c0-1.14.33-2.29,2.69-2.93,2.15-.58,5.44-.57,8.35-.56,7.47,0,11,.38,11,3.56a1.23,1.23,0,0,0,.55,1H439.39A1.24,1.24,0,0,0,440.06,211.05Zm-1.83,1.08h-.31v-.22A1.25,1.25,0,0,0,438.23,212.14Z"/><path d="M38.06,238.51a21.86,21.86,0,0,0-8.65,2.25,1.24,1.24,0,0,0-.88.16,1.22,1.22,0,0,0-.45.56,22,22,0,1,0,21.38-.43,1.18,1.18,0,0,0-.13-.13,1.24,1.24,0,0,0-.44-.17,21.85,21.85,0,0,0-8.64-2.25,1.22,1.22,0,0,0-2.19,0Zm8.76,4-.69,1.09A1.25,1.25,0,1,0,48.25,245l.8-1.27a19.65,19.65,0,0,1,6.11,5.66l-2.08,1.11a1.25,1.25,0,1,0,1.18,2.2l2.2-1.18a19.37,19.37,0,0,1,2.16,8,1.23,1.23,0,0,0-.41-.08h-4.7a1.25,1.25,0,1,0,0,2.5h4.7a1.22,1.22,0,0,0,.39-.08A19.38,19.38,0,0,1,57.16,268a1.22,1.22,0,0,0-.48-.49l-2.43-1.3a1.25,1.25,0,0,0-1.18,2.2l2.43,1.3a1.24,1.24,0,0,0,.59.15l.18,0a19.65,19.65,0,0,1-5.95,6.63,1.19,1.19,0,0,0-.08-.22l-1.47-2.33a1.25,1.25,0,0,0-2.12,1.33l1.47,2.33a1.21,1.21,0,0,0,.13.16,19.37,19.37,0,0,1-7.9,2.21,1.18,1.18,0,0,0,0-.2v-4.7a1.25,1.25,0,0,0-2.5,0v4.7a1.18,1.18,0,0,0,0,.2,19.35,19.35,0,0,1-7.5-2,1.23,1.23,0,0,0,.35-.35l1.47-2.33a1.25,1.25,0,0,0-2.12-1.33l-1.47,2.33a1.22,1.22,0,0,0-.17.58,19.65,19.65,0,0,1-6.48-7,1.17,1.17,0,0,0,.86-.11l2.43-1.3a1.25,1.25,0,0,0-1.18-2.2l-2.43,1.3a1.22,1.22,0,0,0-.52.58,19.38,19.38,0,0,1-1.47-6.24,1.22,1.22,0,0,0,.39.08h4.7a1.25,1.25,0,0,0,0-2.5h-4.7a1.23,1.23,0,0,0-.41.08,19.37,19.37,0,0,1,2.18-8.06l2.26,1.21a1.25,1.25,0,0,0,1.18-2.2l-2.14-1.15a19.65,19.65,0,0,1,5.77-5.43l.68,1.07a1.25,1.25,0,0,0,2.12-1.33l-.58-.92A19.36,19.36,0,0,1,37.9,241v2.74a1.25,1.25,0,0,0,2.5,0V241A19.38,19.38,0,0,1,46.82,242.56Z"/><path d="M41.24,252.08a1.25,1.25,0,0,0-2.5,0v11.3A1.25,1.25,0,0,0,40,264.64a1.21,1.21,0,0,0,.62-.19,1.22,1.22,0,0,0,.39-.08l6.36-2.66a1.25,1.25,0,1,0-1-2.31l-5.16,2.16Z"/><path d="M58.77,24.08a1.25,1.25,0,0,0,1,.51H77.46v2.75a8.1,8.1,0,0,0-4.77,3.44,6.35,6.35,0,0,0-.75,4.7,8,8,0,0,0,.86,2c.18.31.38.61.58.9l.09.12c-3.37,2.61-7.45,5.88-7.92,11.4a13.55,13.55,0,0,0,7.16,12.58l-1.93,2.21a1.25,1.25,0,0,0,.94,2.07H89.53a1.25,1.25,0,0,0,1-2l-1.81-2.5a20.87,20.87,0,0,0,2-1.67,13.88,13.88,0,0,0,4.1-10.38,11.59,11.59,0,0,0-1.5-5.13A18.8,18.8,0,0,0,90,40.92a20,20,0,0,0-2.88-2.35,8.37,8.37,0,0,0,1.95-3.71c.59-3.59-2.69-6.7-6.12-7.58V24.59h8.15v6.56a2.9,2.9,0,1,0,2.5,0V24.59h7A1.25,1.25,0,0,0,101.84,23L91.13-10.18A1.25,1.25,0,0,0,89.94-11H83a3,3,0,0,0,.28-1.27,3.05,3.05,0,0,0-3-3.05,3.05,3.05,0,0,0-3,3.05A3,3,0,0,0,77.45-11h-7a1.25,1.25,0,0,0-1.19.87L58.59,23A1.25,1.25,0,0,0,58.77,24.08ZM80,25.19h.5v1.75H80Zm6.65,9.26a7.27,7.27,0,0,1-1.72,2.91l-.4.5-.11.16a1.25,1.25,0,0,0,.3,2,15.14,15.14,0,0,1,3.59,2.7,16.33,16.33,0,0,1,2.94,3.66,9.13,9.13,0,0,1,1.18,4h0A11.54,11.54,0,0,1,89,58.9,26.82,26.82,0,0,1,86.29,61,1.25,1.25,0,0,0,86,62.79l1.1,1.51H74.47L75.65,63a1.25,1.25,0,0,0-.43-2C67.63,57.63,68,50.91,68,50.16c.36-4.21,3.33-6.82,7.18-9.8a1.94,1.94,0,0,0,.85-2.4,3.22,3.22,0,0,0-.52-.83L75.41,37c-.16-.22-.31-.46-.45-.7a5.55,5.55,0,0,1-.59-1.4,3.86,3.86,0,0,1,.47-2.81c1.16-1.94,3.62-2.63,5.38-2.63a8.68,8.68,0,0,1,2,.21C84.25,30.13,87,32.12,86.61,34.45Zm5.75-.3a.4.4,0,1,1,.4-.4A.4.4,0,0,1,92.36,34.15ZM89-8.55l9.9,30.64H90.84L86-8.55Zm-5.53,0,4.81,30.64H81.58V-8.55Zm-3.29-4.32a.55.55,0,0,1,.55.55.55.55,0,0,1-.55.55.55.55,0,0,1-.55-.55A.55.55,0,0,1,80.21-12.87ZM79.08-8.55V22.09H71.66L77.1-8.55Zm-7.76,0h3.24L69.12,22.09H61.49Z"/><path d="M58.77,343.8a1.25,1.25,0,0,0,1,.51H77.46v2.75a8.1,8.1,0,0,0-4.77,3.44,6.35,6.35,0,0,0-.75,4.7,8,8,0,0,0,.86,2c.18.31.38.61.58.9l.09.12c-3.37,2.61-7.45,5.88-7.92,11.4a13.55,13.55,0,0,0,7.16,12.58l-1.93,2.21a1.25,1.25,0,0,0,.94,2.07H89.53a1.25,1.25,0,0,0,1-2L88.74,382a20.87,20.87,0,0,0,2-1.67A13.88,13.88,0,0,0,94.89,370a11.59,11.59,0,0,0-1.5-5.13A18.8,18.8,0,0,0,90,360.64a20,20,0,0,0-2.88-2.35,8.37,8.37,0,0,0,1.95-3.71c.59-3.59-2.69-6.7-6.12-7.58v-2.68h8.15v6.56a2.9,2.9,0,1,0,2.5,0v-6.56h7a1.25,1.25,0,0,0,1.19-1.63l-10.7-33.14a1.25,1.25,0,0,0-1.19-.87H83a3,3,0,0,0,.28-1.27,3,3,0,1,0-6.1,0,3,3,0,0,0,.28,1.27h-7a1.25,1.25,0,0,0-1.19.87L58.59,342.68A1.25,1.25,0,0,0,58.77,343.8ZM80,344.91h.5v1.75H80Zm6.65,9.26a7.27,7.27,0,0,1-1.72,2.91l-.4.5-.11.16a1.25,1.25,0,0,0,.3,2,15.14,15.14,0,0,1,3.59,2.7,16.33,16.33,0,0,1,2.94,3.66,9.13,9.13,0,0,1,1.18,4h0A11.54,11.54,0,0,1,89,378.62a26.82,26.82,0,0,1-2.71,2.1,1.25,1.25,0,0,0-.29,1.79l1.1,1.51H74.47l1.18-1.35a1.25,1.25,0,0,0-.43-2C67.63,377.34,68,370.63,68,369.87c.36-4.21,3.33-6.82,7.18-9.8a1.94,1.94,0,0,0,.85-2.4,3.22,3.22,0,0,0-.52-.83l-.12-.16c-.16-.22-.31-.46-.45-.7a5.55,5.55,0,0,1-.59-1.4,3.86,3.86,0,0,1,.47-2.81c1.16-1.94,3.62-2.63,5.38-2.63a8.68,8.68,0,0,1,2,.21C84.25,349.85,87,351.84,86.61,354.17Zm5.75-.3a.4.4,0,1,1,.4-.4A.4.4,0,0,1,92.36,353.87ZM89,311.17l9.9,30.64H90.84L86,311.17Zm-5.53,0,4.81,30.64H81.58V311.17Zm-3.29-4.32a.55.55,0,1,1-.55.55A.55.55,0,0,1,80.21,306.85Zm-1.14,4.32v30.64H71.66l5.44-30.64Zm-7.76,0h3.24l-5.44,30.64H61.49Z"/><path d="M481.42,91.81a1.25,1.25,0,0,0,.72,2.27h52.29a1.25,1.25,0,0,0,.7-2.28L513,76.78a1.25,1.25,0,0,0-1.4,2.07l18.76,12.74H486.09l26.84-18.85.17-.14a6.81,6.81,0,1,0-11.62-4.81,1.25,1.25,0,1,0,2.5,0,4.31,4.31,0,1,1,7.42,3Z"/><path d="M-18.81,91.81a1.25,1.25,0,0,0-.47,1.4,1.25,1.25,0,0,0,1.19.87H34.2a1.25,1.25,0,0,0,.7-2.28l-22.13-15a1.25,1.25,0,0,0-1.4,2.07L30.13,91.59H-14.14L12.7,72.74l.17-.14A6.81,6.81,0,0,0,3.24,63a6.76,6.76,0,0,0-2,4.81,1.25,1.25,0,1,0,2.5,0,4.31,4.31,0,1,1,7.42,3Z"/><path d="M185.31,135.59a1.25,1.25,0,0,0-.22,1.08l2.18,8.34H176.49a1.25,1.25,0,0,0-1.25,1.25v19.68a1.25,1.25,0,0,0,2.5,0v-5.07h62.41v5.07a1.25,1.25,0,0,0,2.5,0V146.26A1.25,1.25,0,0,0,241.4,145H198.63l2.08-8.35a1.25,1.25,0,0,0-1.21-1.55h-1.62a6.2,6.2,0,0,1,4.35-3.09,1.25,1.25,0,0,0-.44-2.46,8.68,8.68,0,0,0-6.36,4.83v-5.75a1.25,1.25,0,0,0-2.5,0v6.13c-.07-7.79-3.11-9.91-3.48-10.13a1.23,1.23,0,0,0-1.68.39,1.27,1.27,0,0,0,.34,1.72s2,1.46,2.28,6.81a9.39,9.39,0,0,0-3.5-3.53,1.25,1.25,0,1,0-1.16,2.21,6.72,6.72,0,0,1,2.64,2.87H186.3A1.25,1.25,0,0,0,185.31,135.59Zm-7.57,22.78V156h62.41v2.32Zm62.41-5.61v.79H210v-6h30.13Zm-32.63-5.25v6H177.74v-6h18.7a1.2,1.2,0,0,0,.25.12,1.25,1.25,0,0,0,.3,0,1.23,1.23,0,0,0,.57-.15Zm-14.59-12.73v.33h0C192.92,135,192.92,134.88,192.92,134.77ZM190,137.6h7.85l-1.85,7.4h-6.19l-1.94-7.4Z"/><path d="M58.93,170.53a9,9,0,0,0,6.65,2.55l.23,0a2.52,2.52,0,0,1,1.83.33,1.76,1.76,0,0,1,.25,1.41l-6.2,30.81v0L61,209.81a5.11,5.11,0,0,0-3.27,1.5,3.84,3.84,0,0,0-1,2.65,4.1,4.1,0,0,0,1.16,2.76,5.66,5.66,0,0,0,4.23,1.49h46.37A5.35,5.35,0,0,0,112,217a3.41,3.41,0,0,0,1-2.54c0-1.11-.84-4-4.66-4l-13.67-.1c-.37,0-9.35.06-15.27-9.74l-.07-.1s-2-2.91-2.18-10.5l-.05-12.11c0-.32.37-3.13,4.56-3.13l13.94-.12v5.53H81.74a1.25,1.25,0,0,0-1.25,1.25v9.3c0,5.15,1.52,9.24,4.52,12.16,4.49,4.37,10.73,4.56,11.79,4.56H97c4.44,0,8-1.37,10.66-4.07a15.31,15.31,0,0,0,3.35-5.49,1.18,1.18,0,0,0,.21,0h4.66a1.25,1.25,0,0,0,1.25-1.25v-9.62a1.25,1.25,0,0,0-1.25-1.25h-3.61v-4.38a1.25,1.25,0,0,0-1.25-1.25H98.11v-5.56l5.92-.05a4,4,0,0,0,3-.62,2.14,2.14,0,0,0,.75-1.66v-4h3.11a1.25,1.25,0,0,0,1.25-1.25v-4.46a1.25,1.25,0,0,0-1.25-1.25H107.7l-.1,0c-.65-3.47-3.32-8.55-10.12-8.55H66.11c-.1,0-9.57.32-9.65,11.23A9.8,9.8,0,0,0,58.93,170.53Zm39.18,17.79a3.86,3.86,0,0,1,1.32.31l2.22,10.08c-.17.16-.91.72-3.54.85Zm16.47,0v7.12h-2.9a20.5,20.5,0,0,0,.54-4.63v-2.49Zm-4.86-5.63v8.15c0,.07.1,6.7-3.91,10.81-2.15,2.2-5.13,3.31-8.89,3.31-.07,0-6.09.12-10.17-3.85-2.5-2.43-3.76-5.92-3.76-10.37v-8H95.61v3.14c-2.72.24-3.37,1.29-3.47,2L89.7,198.2a2.26,2.26,0,0,0,.34,1.93c.91,1.33,3.14,2,6.82,2s5.86-.63,6.83-1.91a2.21,2.21,0,0,0,.45-1.84l-2.29-10.44c-.11-.74-.79-1.85-3.72-2.1v-3.13Zm-14.11,5.65v11.24c-2.57-.13-3.3-.66-3.47-.81l2.4-10.18A3.54,3.54,0,0,1,95.61,188.32Zm14-24.52v2h-1.87v-2ZM59,164.06c.06-8.47,6.92-8.77,7.18-8.78H97.48c7.14,0,7.76,7.07,7.78,7.28v3.21h-27a1.25,1.25,0,0,0,0,2.5h27v3.81a3.11,3.11,0,0,1-.93,0l-.21,0-22.45.2c-5.33,0-6.94,3.58-7.05,5.55l0,12.22c.14,8,2.26,11.37,2.63,11.9,6.7,11.05,17,10.92,17.4,10.91l13.65.1c1.91,0,2.16,1.07,2.17,1.5a.91.91,0,0,1-.26.73,3.15,3.15,0,0,1-2,.53H62.12c-2.71,0-2.94-1.34-2.94-1.73,0,0,0-.08,0-.11a1.34,1.34,0,0,1,.38-.89,3.5,3.5,0,0,1,2.48-.73,1.25,1.25,0,0,0,1.22-1l.89-5.12,6.21-30.85a4,4,0,0,0-1-3.64,4.83,4.83,0,0,0-3.87-1,6.53,6.53,0,0,1-4.76-1.77A7.35,7.35,0,0,1,59,164.06Z"/><circle cx="83.57" cy="160.8" r="1.54"/><path d="M236.57,268.91H179.11a1.25,1.25,0,0,0-1.25,1.25v91.58a1.25,1.25,0,0,0,1.25,1.25H188v4.1a1.25,1.25,0,0,0,2.5,0V363h34.69v4.1a1.25,1.25,0,0,0,2.5,0V363h8.89a1.25,1.25,0,0,0,1.25-1.25V270.16A1.25,1.25,0,0,0,236.57,268.91Zm-11.39,77.22H210.7l1.82-8.51H227Zm4.33-10.55a1.25,1.25,0,0,0-1-.46h-17a1.25,1.25,0,0,0-1.22,1l-2.14,10H200v-11a1.25,1.25,0,0,0-1.25-1.25H184.46a1.25,1.25,0,0,0-1.25,1.25v11h-2.85V324h55v22.13h-7.59l2-9.5A1.25,1.25,0,0,0,229.52,335.57Zm-32,.81v9.74h-2.19v-9.74Zm-4.79,0v9.74H190.5v-9.74Zm-4.79,0v9.74h-2.19v-9.74Zm7.46-40.78a6.93,6.93,0,1,1,6.93-6.93A6.94,6.94,0,0,1,195.35,295.61Zm25.48-16.78h.59c-.1,2,0,5.45,1.85,7.41l.42.45c1.55,1.66,2,2.1,2.07,3h-9.27c.11-.93.51-1.36,2.07-3l.42-.45C220.8,284.28,220.93,280.8,220.83,278.83Zm4.79,13.38a4.7,4.7,0,0,1-9,0Zm9.7,29.28h-2.82a7,7,0,0,0,1.72-4.59,1.25,1.25,0,0,0-1.25-1.25H221.13a1.25,1.25,0,0,0-1.25,1.25,7,7,0,0,0,1.72,4.59h-7a7,7,0,0,0,1.72-4.59,1.25,1.25,0,0,0-1.25-1.25H203.23A1.25,1.25,0,0,0,202,316.9a7,7,0,0,0,1.72,4.59h-5.23l-1.35-15.75a1.25,1.25,0,0,0-1.25-1.14H184.42a1.25,1.25,0,0,0-1.25,1.36l1.33,15.54h-4.14v-23h55Zm-12.77-3.34h9a4.7,4.7,0,0,1-9,0Zm-17.9,0h9a4.7,4.7,0,0,1-9,0ZM185.78,307.1h8.95l1.22,14.26H187Zm-5.42-35.69h55V296h-9.17A7,7,0,0,0,228.3,291c0-2.92-.24-3.26-2.78-6l-.42-.45c-1.43-1.54-1.26-5.42-1.08-6.78a1.25,1.25,0,0,0-1.24-1.42h-3.32a1.25,1.25,0,0,0-1.24,1.42c.19,1.36.36,5.24-1.08,6.78l-.42.45c-2.55,2.72-2.78,3.06-2.78,6A7,7,0,0,0,216.1,296H201.27a9.43,9.43,0,1,0-11.83,0h-9.07Zm0,89.08V348.62h26.23v11.87H180.36Zm55,0H209.09V348.62h26.23Z"/><path d="M236.57-50.21H179.11A1.25,1.25,0,0,0,177.86-49V42.63a1.25,1.25,0,0,0,1.25,1.25H188V48a1.25,1.25,0,0,0,2.5,0v-4.1h34.69V48a1.25,1.25,0,0,0,2.5,0v-4.1h8.89a1.25,1.25,0,0,0,1.25-1.25V-49A1.25,1.25,0,0,0,236.57-50.21ZM225.18,27H210.7l1.82-8.51H227Zm4.33-10.55a1.25,1.25,0,0,0-1-.46h-17a1.25,1.25,0,0,0-1.22,1l-2.14,10H200V16a1.25,1.25,0,0,0-1.25-1.25H184.46A1.25,1.25,0,0,0,183.21,16V27h-2.85V4.88h55V27h-7.59l2-9.5A1.25,1.25,0,0,0,229.52,16.46Zm-32,.81V27h-2.19V17.27Zm-4.79,0V27H190.5V17.27Zm-4.79,0V27h-2.19V17.27Zm7.46-40.78a6.94,6.94,0,0,1-6.93-6.93,6.94,6.94,0,0,1,6.93-6.93,6.94,6.94,0,0,1,6.93,6.93A6.94,6.94,0,0,1,195.35-23.51Zm25.48-16.78h.59c-.1,2,0,5.45,1.85,7.41l.42.45c1.55,1.66,2,2.1,2.07,3h-9.27c.11-.93.51-1.36,2.07-3l.42-.45C220.8-34.83,220.93-38.31,220.83-40.29Zm4.79,13.38a4.67,4.67,0,0,1-4.5,3.34,4.67,4.67,0,0,1-4.5-3.34Zm9.7,29.28h-2.82a7,7,0,0,0,1.72-4.59A1.25,1.25,0,0,0,233-3.46H221.13a1.25,1.25,0,0,0-1.25,1.25,7,7,0,0,0,1.72,4.59h-7a7,7,0,0,0,1.72-4.59,1.25,1.25,0,0,0-1.25-1.25H203.23A1.25,1.25,0,0,0,202-2.21a7,7,0,0,0,1.72,4.59h-5.23l-1.35-15.75a1.25,1.25,0,0,0-1.25-1.14H184.42a1.25,1.25,0,0,0-.92.4,1.25,1.25,0,0,0-.32,1L184.5,2.38h-4.14v-23h55ZM222.55-1h9a4.67,4.67,0,0,1-4.5,3.34A4.67,4.67,0,0,1,222.55-1Zm-17.9,0h9a4.67,4.67,0,0,1-4.5,3.34A4.67,4.67,0,0,1,204.65-1ZM185.78-12h8.95l1.22,14.26H187Zm-5.42-35.69h55v24.6h-9.17a7,7,0,0,0,2.15-5.05c0-2.92-.24-3.26-2.78-6l-.42-.45c-1.43-1.54-1.26-5.42-1.08-6.78a1.25,1.25,0,0,0-.3-1,1.25,1.25,0,0,0-.94-.43h-3.32a1.25,1.25,0,0,0-.94.43,1.25,1.25,0,0,0-.3,1c.19,1.36.36,5.24-1.08,6.78l-.42.45c-2.55,2.72-2.78,3.06-2.78,6a7,7,0,0,0,2.15,5.05H201.27a9.41,9.41,0,0,0,3.52-7.33,9.44,9.44,0,0,0-9.43-9.43,9.44,9.44,0,0,0-9.43,9.43,9.41,9.41,0,0,0,3.51,7.33h-9.07Zm0,89.08V29.51h26.23V41.38H180.36Zm55,0H209.09V29.51h26.23Z"/><path d="M521.66-2.72H478.34a1.25,1.25,0,0,0-1.25,1.25V33.18a1.25,1.25,0,0,0,1.25,1.25h6v4.13a1.25,1.25,0,0,0,2.5,0V34.43H513.1v4.13a1.25,1.25,0,1,0,2.5,0V34.43h6.05a1.25,1.25,0,0,0,1.25-1.25V-1.47A1.25,1.25,0,0,0,521.66-2.72Zm-42.06,14h40.81v9H479.59Zm40.81-2.5H501.25v-9h19.16Zm-40.81-9h19.16v9H479.59Zm40.81,32.15H479.59v-9h40.81Z"/><path d="M504.74,14.61h-9.47a1.25,1.25,0,1,0,0,2.5h9.47a1.25,1.25,0,0,0,0-2.5Z"/><path d="M492.46,3.06h-6.58a1.25,1.25,0,1,0,0,2.5h6.58a1.25,1.25,0,0,0,0-2.5Z"/><path d="M495.26,28.65h9.47a1.25,1.25,0,0,0,0-2.5h-9.47a1.25,1.25,0,0,0,0,2.5Z"/><path d="M21.66-2.72H-21.66a1.25,1.25,0,0,0-1.25,1.25V33.18a1.25,1.25,0,0,0,1.25,1.25h6v4.13a1.25,1.25,0,0,0,1.25,1.25,1.25,1.25,0,0,0,1.25-1.25V34.43H13.1v4.13a1.25,1.25,0,0,0,2.5,0V34.43h6.05a1.25,1.25,0,0,0,1.25-1.25V-1.47A1.25,1.25,0,0,0,21.66-2.72Zm-42.06,14H20.41v9H-20.41Zm40.81-2.5H1.25v-9H20.41Zm-40.81-9H-1.25v9H-20.41ZM20.41,31.93H-20.41v-9H20.41Z"/><path d="M4.74,14.61H-4.74A1.25,1.25,0,0,0-6,15.86a1.25,1.25,0,0,0,1.25,1.25H4.74a1.25,1.25,0,0,0,0-2.5Z"/><path d="M7.54,5.56h6.58a1.25,1.25,0,0,0,0-2.5H7.54a1.25,1.25,0,0,0,0,2.5Z"/><path d="M-4.74,28.65H4.74a1.25,1.25,0,0,0,0-2.5H-4.74A1.25,1.25,0,0,0-6,27.4,1.25,1.25,0,0,0-4.74,28.65Z"/><path d="M21.66,317.77H-21.66A1.25,1.25,0,0,0-22.91,319v34.65a1.25,1.25,0,0,0,1.25,1.25h6V359a1.25,1.25,0,0,0,1.25,1.25A1.25,1.25,0,0,0-13.11,359v-4.12H13.1V359a1.25,1.25,0,0,0,2.5,0v-4.12h6.05a1.25,1.25,0,0,0,1.25-1.25V319A1.25,1.25,0,0,0,21.66,317.77Zm-42.06,14H20.41v9H-20.41Zm40.81-2.5H1.25v-9H20.41Zm-40.81-9H-1.25v9H-20.41Zm40.81,32.15H-20.41v-9H20.41Z"/><path d="M-17.13,296.83A17.15,17.15,0,0,0,0,314a17.15,17.15,0,0,0,17.13-17.13A17.15,17.15,0,0,0,0,279.7,17.15,17.15,0,0,0-17.13,296.83Zm31.76,0A14.65,14.65,0,0,1,0,311.46a14.65,14.65,0,0,1-14.63-14.63A14.65,14.65,0,0,1,0,282.2,14.65,14.65,0,0,1,14.63,296.83Z"/><path d="M521.66,317.77H478.34a1.25,1.25,0,0,0-1.25,1.25v34.65a1.25,1.25,0,0,0,1.25,1.25h6V359a1.25,1.25,0,0,0,2.5,0v-4.12H513.1V359a1.25,1.25,0,1,0,2.5,0v-4.12h6.05a1.25,1.25,0,0,0,1.25-1.25V319A1.25,1.25,0,0,0,521.66,317.77Zm-42.06,14h40.81v9H479.59Zm40.81-2.5H501.25v-9h19.16Zm-40.81-9h19.16v9H479.59Zm40.81,32.15H479.59v-9h40.81Z"/><path d="M482.87,296.83A17.13,17.13,0,1,0,500,279.7,17.15,17.15,0,0,0,482.87,296.83Zm31.76,0A14.63,14.63,0,1,1,500,282.2,14.65,14.65,0,0,1,514.63,296.83Z"/><path d="M175.33,192.51h.3a1.25,1.25,0,0,0,0-2.5H153.28a1.25,1.25,0,0,0,0,2.5h.35l.7,5.1H136a1.25,1.25,0,0,0-1.25,1.25v5a1.25,1.25,0,0,0,1.25,1.25h5.36v31.52a1.25,1.25,0,0,0,1.25,1.25h2.76a1.25,1.25,0,0,0,1.25-1.2L148,205.07h7.36l1.39,10.09h-3.07a1.25,1.25,0,0,0,0,2.5h3l-3.2,17.73a1.25,1.25,0,0,0,1,1.45l.22,0a1.25,1.25,0,0,0,1.23-1l1.45-8h14.15l1.45,8a1.25,1.25,0,0,0,1.23,1l.22,0a1.25,1.25,0,0,0,1-1.45l-3.2-17.73h3a1.25,1.25,0,0,0,0-2.5h-3l1.39-10.09h24.23l1.39,10.09h-3.07a1.25,1.25,0,0,0,0,2.5h3L196,235.38a1.25,1.25,0,0,0,1,1.45l.22,0a1.25,1.25,0,0,0,1.23-1l1.45-8H214l1.45,8a1.25,1.25,0,0,0,1.23,1l.22,0a1.25,1.25,0,0,0,1-1.45l-3.2-17.73h3a1.25,1.25,0,0,0,0-2.5h-3l1.39-10.09h7.68l1.39,31.58a1.25,1.25,0,0,0,1.25,1.2h2.76a1.25,1.25,0,0,0,1.25-1.25v-.16a1.22,1.22,0,0,0,.69.41l.22,0a1.25,1.25,0,0,0,1.23-1l1.45-8h14.15l1.45,8a1.25,1.25,0,0,0,1.23,1l.22,0a1.25,1.25,0,0,0,1-1.45l-3.2-17.73h3a1.25,1.25,0,0,0,0-2.5h-3l3.13-22.65a1.25,1.25,0,0,0,0-2.5h-1.6a1.24,1.24,0,0,0-.85,2.16l-3.17,23H230.38V205.07h5.36a1.25,1.25,0,0,0,1.25-1.25v-5a1.25,1.25,0,0,0-1.25-1.25H217.09l.7-5.1h.3a1.25,1.25,0,0,0,0-2.5H195.74a1.25,1.25,0,0,0,0,2.5h.35l.7,5.1H174.63ZM169,215.16l.7-10.09h1.41l-1.39,10.09Zm2.45-12.59h-1.59l.17-2.46h1.75Zm-3.75-5h-1.94v-5.1H168Zm-1.94,7.46h1.42l-.7,10.09h-.73Zm1.6-2.5h-1.6v-2.46h1.77Zm-5.86-2.46h1.77v2.46h-1.6Zm1,15-.7-10.09h1.42v10.09Zm.73-22.65v5.1h-1.94l-.35-5.1Zm-4.1,10.06h-1.58l-.34-2.46H159Zm.15,12.59-1.39-10.09h1.41l.7,10.09Zm-15.12,20.18h-.31V205.07h1.64Zm2.64-32.77h-9.56v-2.46h17.43l.34,2.46Zm9.35-10.06h2.28l.35,5.1h-1.93Zm1.7,32.78,1.38-7.63h10.49l1.38,7.63Zm14.25-27.68h-1.93l.35-5.1h2.28Zm29.64,17.55-1.39-10.09h1.41l.7,10.09Zm-.15-12.59H200l-.34-2.46h1.76Zm-1.27,22.72,1.38-7.63h10.49l1.38,7.63ZM205,215.16l-.7-10.09h1.42v10.09Zm.73-12.59h-1.6l-.17-2.46h1.77Zm2.5,12.59V205.07h1.42l-.7,10.09Zm1.6-12.59h-1.6v-2.46H210Zm4.09,0H212.3l.17-2.46h1.75Zm-.35,2.5-1.39,10.09h-.72l.7-10.09Zm14.34,30.27h-.31l-1.33-30.27h1.64Zm6.55-10,1.38-7.63H246.3l1.38,7.63Zm-1.16-7.63-2.89,16v-16Zm1.22-17.55v2.46H216.41l.34-2.46Zm-19.92-2.5h-1.93l.35-5.1h2.28Zm-4.43,0H208.2v-5.1h2.29Zm-4.44-5.1v5.1h-1.94l-.35-5.1Zm-4.8,0,.35,5.1h-1.93l-.7-5.1Zm-3.75,7.6.34,2.46H173.94l.34-2.46Z"/><path d="M478.68,138.62a21.34,21.34,0,0,0,15.81,20.57l-2.67,29.65a1.25,1.25,0,0,0,1.25,1.36h12a1.25,1.25,0,0,0,1.25-1.34l-2.17-29.32a21.35,21.35,0,0,0,17.23-20.92,1.25,1.25,0,0,0-1.25-1.25H510.9a1.23,1.23,0,0,0,.63-1.06,1.25,1.25,0,0,0-1.25-1.25h-5a1.25,1.25,0,0,0-1.25,1.25v1.06h-2.81v-5.61c.48-.68,1.21-1.37,1.59-1.34.16,0,.57.33,1,1.43a1.25,1.25,0,1,0,2.32-.94c-.76-1.88-1.82-2.89-3.14-3-2.18-.18-3.8,2.31-4.11,2.81a1.25,1.25,0,0,0-.18.64v6h-3.21v-1.06a1.25,1.25,0,0,0-1.25-1.25h-5a1.25,1.25,0,0,0-1.25,1.25,1.23,1.23,0,0,0,.63,1.06h-8.77A1.25,1.25,0,0,0,478.68,138.62Zm15.75,49.08,2.53-28a21.29,21.29,0,0,0,3.05.24c.54,0,1.08,0,1.61-.08l2.06,27.84Zm-.14-47.83h24.49a18.82,18.82,0,0,1-37.56,0Z"/><path d="M-21.32,138.62A21.34,21.34,0,0,0-5.52,159.19l-2.67,29.65a1.25,1.25,0,0,0,.32,1,1.25,1.25,0,0,0,.92.41H5a1.25,1.25,0,0,0,1.25-1.34L4.09,159.54a21.35,21.35,0,0,0,17.23-20.92,1.25,1.25,0,0,0-1.25-1.25H10.9a1.23,1.23,0,0,0,.63-1.06,1.25,1.25,0,0,0-1.25-1.25h-5a1.25,1.25,0,0,0-1.25,1.25v1.06H1.25v-5.61c.48-.68,1.21-1.37,1.59-1.34.16,0,.57.33,1,1.43a1.25,1.25,0,1,0,2.32-.94C5.41,129,4.36,128,3,127.93c-2.18-.18-3.8,2.31-4.11,2.81a1.25,1.25,0,0,0-.18.64v6H-4.46v-1.06a1.25,1.25,0,0,0-1.25-1.25h-5a1.25,1.25,0,0,0-1.25,1.25,1.23,1.23,0,0,0,.63,1.06h-8.77A1.25,1.25,0,0,0-21.32,138.62ZM-5.58,187.7l2.53-28a21.29,21.29,0,0,0,3.05.24c.54,0,1.08,0,1.61-.08L3.67,187.7Zm-.14-47.83H18.78A18.85,18.85,0,0,1,0,157.44a18.85,18.85,0,0,1-18.78-17.57Z"/><path d="M265,64.07h45.44a1.25,1.25,0,0,0,1.25-1.25V8a1.25,1.25,0,0,0-1.25-1.25H265A1.25,1.25,0,0,0,263.72,8V62.82A1.25,1.25,0,0,0,265,64.07Zm44.19-2.5H266.22V21.18h42.94ZM266.22,9.25h42.94v9.43H266.22Z"/><path d="M287.69,58.47a16.89,16.89,0,1,0-16.89-16.89A16.91,16.91,0,0,0,287.69,58.47Zm14.39-16.89a14.46,14.46,0,0,1-.09,1.6h-6.61V40H302A14.46,14.46,0,0,1,302.08,41.59ZM287.69,27.2a14.41,14.41,0,0,1,13.78,10.28h-7.35a1.25,1.25,0,0,0-1.25,1.25v5.71a1.25,1.25,0,0,0,1.25,1.25h7.35A14.38,14.38,0,1,1,287.69,27.2Z"/><path d="M278.6,12.71h-8.43a1.25,1.25,0,0,0,0,2.5h8.43a1.25,1.25,0,0,0,0-2.5Z"/><path d="M296.61,11.13A2.83,2.83,0,1,0,299.44,14,2.83,2.83,0,0,0,296.61,11.13Zm0,3.16a.33.33,0,1,1,.33-.33A.33.33,0,0,1,296.61,14.29Z"/><path d="M304.19,11.13A2.83,2.83,0,1,0,307,14,2.83,2.83,0,0,0,304.19,11.13Zm0,3.16a.33.33,0,1,1,.33-.33A.33.33,0,0,1,304.19,14.29Z"/><path d="M249.57,90.74a1.25,1.25,0,0,0,.1,1.77l20.39,18.27a1.25,1.25,0,0,0,.83.32H271a1.25,1.25,0,0,0,.86-.41c5.92-6.61,6-16.23.4-21.81,4.53-1.86,8.3-2,11.19-.39,5,2.79,6,10,6.14,10.68v74.65h-7.19a1.25,1.25,0,0,0,0,2.5h16.88a1.25,1.25,0,0,0,0-2.5h-7.19V99.09a1.24,1.24,0,0,0,0-.13c0-.37-1.05-9.11-7.42-12.66-3.88-2.16-8.79-1.88-14.61.8C263.87,83.14,255.12,84.55,249.57,90.74Zm12.72-3.38a11.53,11.53,0,0,1,7.78,2.89c4.83,4.33,5.05,12.09.69,17.8L252.31,91.51A14.62,14.62,0,0,1,262.3,87.36Z"/><path d="M393.39,101.81a1.25,1.25,0,0,0,1.23,1.46h8.6a1.25,1.25,0,0,0,1.25-1.25V77.81a1.25,1.25,0,0,0-1.25-1.25h-2.84a4.06,4.06,0,0,0,.39-1.73V71.77a4.32,4.32,0,0,0-4.39-4.23h-.94V38.12a1.25,1.25,0,0,0-1.25-1.25H328.08a1.25,1.25,0,0,0-1.25,1.25V67.54h-.94a4.32,4.32,0,0,0-4.39,4.23v3.06a4.06,4.06,0,0,0,.39,1.73h-2.84a1.25,1.25,0,0,0-1.25,1.25V102a1.25,1.25,0,0,0,1.25,1.25h9a1.25,1.25,0,0,0,1.23-1.46,2.72,2.72,0,0,1-.05-.47V91.24a2.8,2.8,0,0,1,2.8-2.8h58.58a2.8,2.8,0,0,1,2.8,2.8v10.1A2.72,2.72,0,0,1,393.39,101.81ZM329.33,39.37h63.61V67.54h-5.39V56.67a1.25,1.25,0,0,0-1.4-1.24l-9.93,1.18-9.93-1.18a1.25,1.25,0,0,0-1.4,1.24V67.54h-7.52V56.67a1.25,1.25,0,0,0-.42-.94,1.23,1.23,0,0,0-1-.3L346,56.66l-9.92-1.23a1.23,1.23,0,0,0-1,.3,1.25,1.25,0,0,0-.42.94V67.54h-5.39ZM367.4,67.54V58.08l8.68,1a1.24,1.24,0,0,0,.29,0l8.68-1v9.46Zm-30.17,0V58.09l8.67,1.08a1.17,1.17,0,0,0,.31,0l8.67-1.08v9.45ZM324,71.77A1.82,1.82,0,0,1,325.89,70h70.49a1.82,1.82,0,0,1,1.89,1.73v3.06a1.82,1.82,0,0,1-1.89,1.73H325.89A1.82,1.82,0,0,1,324,74.83Zm66.64,14.17H332.06a5.3,5.3,0,0,0-5.3,5.3v9.53h-6.46V79.06H402v21.71h-6V91.24A5.3,5.3,0,0,0,390.64,85.94Z"/><path d="M339.72,51.48a2.9,2.9,0,1,0-2.9-2.9A2.91,2.91,0,0,0,339.72,51.48Zm0-3.31a.4.4,0,1,1-.4.4A.4.4,0,0,1,339.72,48.17Z"/><path d="M361.46,51.48a2.9,2.9,0,1,0-2.9-2.9A2.91,2.91,0,0,0,361.46,51.48Zm0-3.31a.4.4,0,1,1-.4.4A.4.4,0,0,1,361.46,48.17Z"/><path d="M382.21,51.48a2.9,2.9,0,1,0-2.9-2.9A2.91,2.91,0,0,0,382.21,51.48Zm0-3.31a.4.4,0,1,1-.4.4A.4.4,0,0,1,382.21,48.17Z"/><path d="M329.83,174.65h-5.51a1.25,1.25,0,0,0,0,2.5h5.51a1.25,1.25,0,0,0,0-2.5Z"/><path d="M347.31,175.9a1.25,1.25,0,0,0,1.25,1.25h5.51a1.25,1.25,0,0,0,0-2.5h-5.51A1.25,1.25,0,0,0,347.31,175.9Z"/><path d="M317.18,203a1.25,1.25,0,0,0,1.25-1.25V198.6h42.19v3.11a1.25,1.25,0,0,0,2.5,0V169a1.25,1.25,0,0,0-1.25-1.25h-1.27V138.25a1.25,1.25,0,0,0-1.25-1.25H319.95a1.25,1.25,0,0,0-1.25,1.25v29.48h-1.51a1.25,1.25,0,0,0-1.25,1.25v32.73A1.25,1.25,0,0,0,317.18,203Zm10.19-35.23-1.58-2.9h28.09l-1.27,2.9H327.37Zm13.44-7.52v2.12h-1v-4.24h1Zm19.81,10V196.1H340.78V170.23h19.85ZM321.2,139.5h36.91v28.23h-2.76l1.6-3.65a1.25,1.25,0,0,0-1.15-1.75H343.31v-.87h1.37a1.25,1.25,0,0,0,0-2.5h-1.37v-2.12a1.25,1.25,0,0,0-1.25-1.25H338.6a1.25,1.25,0,0,0-1.25,1.25v5.49H323.69a1.25,1.25,0,0,0-1.1,1.85l1.93,3.55H321.2Zm-2.76,30.73h19.85V196.1H318.43Z"/><path d="M446.21,86.22a16.15,16.15,0,0,0,16.14-15.86,16.34,16.34,0,0,0-.18-2.58,3.49,3.49,0,0,1-.72.08,3.73,3.73,0,0,1-1.51-.33l-.37-.16a13.74,13.74,0,0,1,.27,2.94,13.65,13.65,0,1,1-13.65-13.89h.24a13.54,13.54,0,0,1,8.66,3.3v0a3.43,3.43,0,0,1,1-2.34,16,16,0,0,0-9.64-3.43h-.29a16.15,16.15,0,0,0-.28,32.3Z"/><path d="M446.2,65h.09a5,5,0,0,1,.67.08A10,10,0,0,1,448.13,64c.33-.28.68-.55,1.05-.81a7.53,7.53,0,1,0-3.12,14.44h.14a7.52,7.52,0,0,0,7.44-6.44,11.1,11.1,0,0,1-2.82.89,5,5,0,0,1-4.62,3h-.09A5,5,0,0,1,446.2,65Z"/><path d="M452.43,64.07q-.47.26-.93.54a14.44,14.44,0,0,0-1.75,1.27,8.8,8.8,0,0,0-.78.72l-.07.08a2.9,2.9,0,0,0-.52.8,3.62,3.62,0,0,1-.65,1l-.45.53-.82.93a.31.31,0,0,0,.05.21.26.26,0,0,0,.1.08l1.19-.3,1.18-.27h0a1.14,1.14,0,0,1,.26,0h0l.35,0,.24,0H450a6.59,6.59,0,0,0,.9-.16l.22-.07h0q.38-.11.75-.25t.72-.31l.81-.41a23.06,23.06,0,0,0,2.09-1.29,22.44,22.44,0,0,0,3.15-2.59h0a.5.5,0,0,1,.21-.13H459a.51.51,0,0,1,.21.05c.57.26,1.16.51,1.74.76l.27.09h.08l.15,0h0l.19,0,.09,0a1.24,1.24,0,0,0,.28-.13h0c.73-.45,1.47-.87,2.21-1.3l.3-.17a.71.71,0,0,0,.24-.25l-.09-.26-3-1.74c-.16-.09-.3-.18-.32-.41-.06-1.07-.14-2.14-.21-3.2h0a1.06,1.06,0,0,0,0-.26l0,0a.26.26,0,0,0-.1-.13h0a.25.25,0,0,0-.15,0h-.05a1,1,0,0,0-.24.1c-.83.48-1.65,1-2.48,1.45a1,1,0,0,0-.38.36,1,1,0,0,0-.14.5c0,.63-.09,1.26-.13,1.89a.37.37,0,0,1-.24.35s0,0-.08,0c-.32.09-.64.18-1,.29a21.48,21.48,0,0,0-2.8,1.19Z"/><path d="M446.2,93.73a23.66,23.66,0,0,0,.41-47.32h-.42a23.66,23.66,0,0,0-.41,47.32ZM425,69.7a21.19,21.19,0,0,1,21.15-20.79h.38a21.06,21.06,0,0,1,14.3,6,21.25,21.25,0,0,1,4.19,5.63,21.15,21.15,0,0,1-18.85,30.73h-.39A21.16,21.16,0,0,1,425,69.7Z"/><path d="M358-13.32h4.9V15.93a1.25,1.25,0,0,0,2.5,0V-13.32H394.8v1.69a3.73,3.73,0,0,0,3.73,3.73h3.71v.81H389.44a3.73,3.73,0,0,0-3.73,3.73A3.73,3.73,0,0,0,389.44.37h7V12.2h-5.78A3.73,3.73,0,0,0,387,15.93a1.25,1.25,0,0,0,2.5,0,1.23,1.23,0,0,1,1.23-1.23h14.06A1.23,1.23,0,0,1,406,15.93a1.25,1.25,0,0,0,2.5,0,3.73,3.73,0,0,0-3.73-3.73H399V.37h7a3.73,3.73,0,0,0,3.73-3.73A3.73,3.73,0,0,0,406-7.09h-1.23V-7.9h3.71a3.73,3.73,0,0,0,3.73-3.73v-1.69h11.17V-1A1.25,1.25,0,0,0,424.6.24h18.89V15.93a1.25,1.25,0,0,0,2.5,0V-13.32h4.9a1.25,1.25,0,0,0,1.25-1.25v-4.62a1.25,1.25,0,0,0-1.25-1.25h-7.27a8,8,0,0,0-5.69-4v-7.65l1.53,1.53a1.25,1.25,0,0,0,.88.37,1.25,1.25,0,0,0,.88-.37,1.25,1.25,0,0,0,0-1.77L437.57-36h0l-5-5L434.62-43a1.25,1.25,0,0,0,0-1.77,1.25,1.25,0,0,0-1.77,0l-6.09,6.09a4.6,4.6,0,0,0-5.49.75,1.25,1.25,0,0,0,0,1.77L426-31.47a1.25,1.25,0,0,0,.88.37,1.25,1.25,0,0,0,.88-.37,4.6,4.6,0,0,0,.75-5.49l2.27-2.27,4.64,4.64v10.15a8,8,0,0,0-5.69,4H412.19v-4.42a3.73,3.73,0,0,0-3.73-3.73h-9.92a3.73,3.73,0,0,0-3.73,3.73v4.42H393v-1.9a1.25,1.25,0,0,0-1.25-1.25h-6.62l-2.48-12.35a1.25,1.25,0,0,0-1.23-1H361.77a1.25,1.25,0,0,0-1,.46,1.25,1.25,0,0,0-.26,1l2.66,13.24v1.78H358a1.25,1.25,0,0,0-1.25,1.25v4.62A1.25,1.25,0,0,0,358-13.32ZM426.6-34.41l-2.4-2.4a2.1,2.1,0,0,1,1.8.59A2.11,2.11,0,0,1,426.6-34.41ZM436.68-22a5.45,5.45,0,0,1,3.78,1.53H432.9A5.45,5.45,0,0,1,436.68-22ZM388.21-3.36a1.23,1.23,0,0,1,1.23-1.23h12.24a4.61,4.61,0,0,1-4.06,2.46h-8.18A1.23,1.23,0,0,1,388.21-3.36ZM406-4.59a1.23,1.23,0,0,1,1.23,1.23A1.23,1.23,0,0,1,406-2.13H403a7.11,7.11,0,0,0,1.38-2.46Zm19.88,2.33V-6.54h17.64v4.28ZM443.49-9H425.85v-4.28h17.64Zm6.15-8.9v2.12H412.19v-2.12ZM397.3-24.86a1.23,1.23,0,0,1,1.23-1.23h9.92a1.23,1.23,0,0,1,1.23,1.23v13.23a1.23,1.23,0,0,1-1.23,1.23h-3.71v-7.85a1.25,1.25,0,0,0-1.25-1.25,1.25,1.25,0,0,0-1.25,1.25v7.85h-3.71a1.23,1.23,0,0,1-1.23-1.23V-24.86Zm-13.24,3.77h6.39v.65H373.35v-.65Zm-3.71-13.36,2.18,10.86H365.48L363.3-34.45ZM365.71-21.09h5.14v.65h-5.14Zm-6.41,3.15H394.8v2.12H359.29Z"/><path d="M358,306.68h4.9v29.25a1.25,1.25,0,0,0,2.5,0V306.68H394.8v1.69a3.73,3.73,0,0,0,3.73,3.73h3.71v.81H389.44a3.73,3.73,0,0,0,0,7.46h7V332.2h-5.78a3.73,3.73,0,0,0-3.73,3.73,1.25,1.25,0,1,0,2.5,0,1.23,1.23,0,0,1,1.23-1.23h14.06a1.23,1.23,0,0,1,1.23,1.23,1.25,1.25,0,0,0,2.5,0,3.73,3.73,0,0,0-3.73-3.73H399V320.37h7a3.73,3.73,0,0,0,0-7.46h-1.23v-.81h3.71a3.73,3.73,0,0,0,3.73-3.73v-1.69h11.17V319a1.25,1.25,0,0,0,1.25,1.25h18.89v15.69a1.25,1.25,0,1,0,2.5,0V306.68h4.9a1.25,1.25,0,0,0,1.25-1.25v-4.62a1.25,1.25,0,0,0-1.25-1.25h-7.27a8,8,0,0,0-5.69-4v-7.65l1.53,1.53a1.25,1.25,0,0,0,1.77-1.77L437.57,284h0l-5-5,2.05-2.05a1.25,1.25,0,0,0-1.77-1.77l-6.09,6.09a4.6,4.6,0,0,0-5.49.75,1.25,1.25,0,0,0,0,1.77l4.75,4.75a1.25,1.25,0,0,0,1.77,0,4.6,4.6,0,0,0,.75-5.49l2.27-2.27,4.64,4.64v10.15a8,8,0,0,0-5.69,4H412.19v-4.42a3.73,3.73,0,0,0-3.73-3.73h-9.92a3.73,3.73,0,0,0-3.73,3.73v4.42H393v-1.9a1.25,1.25,0,0,0-1.25-1.25h-6.62l-2.48-12.35a1.25,1.25,0,0,0-1.23-1H361.77a1.25,1.25,0,0,0-1.23,1.5l2.66,13.24v1.78H358a1.25,1.25,0,0,0-1.25,1.25v4.62A1.25,1.25,0,0,0,358,306.68Zm68.56-21.09-2.4-2.4a2.1,2.1,0,0,1,2.4,2.4ZM436.68,298a5.45,5.45,0,0,1,3.78,1.53H432.9A5.45,5.45,0,0,1,436.68,298Zm-48.47,18.69a1.23,1.23,0,0,1,1.23-1.23h12.24a4.61,4.61,0,0,1-4.06,2.46h-8.18A1.23,1.23,0,0,1,388.21,316.64ZM406,315.41a1.23,1.23,0,0,1,0,2.46H403a7.11,7.11,0,0,0,1.38-2.46Zm19.88,2.33v-4.28h17.64v4.28ZM443.49,311H425.85v-4.28h17.64Zm6.15-8.9v2.12H412.19v-2.12Zm-52.34-6.92a1.23,1.23,0,0,1,1.23-1.23h9.92a1.23,1.23,0,0,1,1.23,1.23v13.23a1.23,1.23,0,0,1-1.23,1.23h-3.71v-7.85a1.25,1.25,0,0,0-2.5,0v7.85h-3.71a1.23,1.23,0,0,1-1.23-1.23V295.14Zm-13.24,3.77h6.39v.65H373.35v-.65Zm-3.71-13.36,2.18,10.86H365.48l-2.18-10.86Zm-14.66,13.36h5.14v.65h-5.14Zm-6.41,3.15H394.8v2.12H359.29Z"/><path d="M461,132.76a4.22,4.22,0,0,0-2.5-4.77,11.86,11.86,0,0,0-5.23-1.12,18.18,18.18,0,0,0-2.16.14,7.54,7.54,0,0,0-5,2.73c-2.66,3.13-3.51,7-4,10.86-.28,2.13-.35,4.28-.53,6.6a16.92,16.92,0,0,0-8.34-1.65l-3.23,0h-.27l-7.23,0h-9.11l-2.71,0c-3.15,0-6.33.21-9.47,2.06,0-1.66.07-3,0-4.33a27.42,27.42,0,0,0-2.77-11.34,10.23,10.23,0,0,0-9.06-5.26,10,10,0,0,0-5.34,1.52,4.28,4.28,0,0,0-2,4.67,4.14,4.14,0,0,0,3.3,3.67c.86.2,1.75.26,2.65.39.16,3.78.18,7.53.51,11.25.4,4.39.89,8.79,1.7,13.12.34,1.81.55,4.27,3.32,4.27a5.37,5.37,0,0,0,.58,0v3.76h6.15v-3.68h42.4v3.77h6.26s-.12-3-.12-4a4.13,4.13,0,0,0,.91.11c1.63,0,2.22-1.26,2.69-2.66a10,10,0,0,0,.52-1.82c.56-4.29,1.21-8.56,1.59-12.87.33-3.72.35-7.47.51-11.29.86-.1,1.63-.14,2.37-.3A4.28,4.28,0,0,0,461,132.76Zm-5.42,1.58-.86.09a2.5,2.5,0,0,0-2.2,2.38c0,1.19-.09,2.37-.12,3.54-.08,2.64-.16,5.14-.38,7.64-.29,3.22-.73,6.5-1.17,9.68q-.21,1.54-.41,3.08a6,6,0,0,1-.29,1l-.12.35a5.12,5.12,0,0,1-.39,1l-.29,0a2.5,2.5,0,0,0-3.05,2.44c0,.34,0,.89,0,1.46h-1.17v-1.27a2.5,2.5,0,0,0-2.5-2.5h-42.4a2.5,2.5,0,0,0-2.5,2.5v1.18h-1.15v-1.26a2.5,2.5,0,0,0-2.5-2.5h-.27l-.31,0a1.91,1.91,0,0,1-.29,0h0a5.78,5.78,0,0,1-.49-1.78l-.08-.43c-.68-3.64-1.19-7.62-1.66-12.89-.23-2.5-.3-5-.38-7.62,0-1.17-.07-2.34-.12-3.51a2.5,2.5,0,0,0-2.14-2.37l-.9-.12a14.54,14.54,0,0,1-1.53-.24,1.67,1.67,0,0,1-1.41-1.63,1.81,1.81,0,0,1,.85-2.16,7.47,7.47,0,0,1,4-1.13,7.75,7.75,0,0,1,6.85,3.93c1.44,2.71,2.2,5.89,2.48,10.32.05.8,0,1.63,0,2.59,0,.5,0,1,0,1.58a2.5,2.5,0,0,0,3.77,2.15c2.68-1.58,5.52-1.72,8.19-1.72h11.82l7.22,0h3.51c2.79,0,5.07.23,7.16,1.35a2.5,2.5,0,0,0,3.68-2c.06-.75.1-1.47.15-2.19.09-1.49.18-2.9.37-4.27.52-3.92,1.31-7.05,3.46-9.57a5.07,5.07,0,0,1,3.37-1.87,15.79,15.79,0,0,1,1.87-.12,9.37,9.37,0,0,1,4.15.87,1.76,1.76,0,0,1,1.1,2.18,1.81,1.81,0,0,1-1.63,1.74C456.47,134.24,456,134.28,455.53,134.33Z"/><path d="M393.46,124.63c14-11.66,42.3-11.64,56,0a1.25,1.25,0,0,0,1.62-1.9c-14.47-12.35-44.35-12.37-59.2,0a1.25,1.25,0,1,0,1.6,1.92Z"/><path d="M346.74,225.51a1.25,1.25,0,0,0-1.24-1.08H319.75a1.25,1.25,0,0,0-1.24,1.08l-2.28,16.72a1.25,1.25,0,0,0,1.24,1.42h13.91v59.82a1.25,1.25,0,0,0,2.5,0V243.65h13.91a1.25,1.25,0,0,0,1.24-1.42ZM318.9,241.15l1.94-14.22h23.57l1.94,14.22Z"/><path d="M84.08,295.67a1.25,1.25,0,0,0,1.25-1.25v-4.17h62.19v2.81a1.25,1.25,0,0,0,2.5,0V247.55a1.25,1.25,0,0,0-2.5,0v8.82H85.33v-8.82a1.25,1.25,0,0,0-2.5,0v46.87A1.25,1.25,0,0,0,84.08,295.67Zm63.44-7.92H85.33v-5.5h62.19Zm0-8H137.41V258.86h10.11Zm-12.61,0H124.08V258.86h10.83Zm-13.33,0H110.75V258.86h10.83Zm-13.33,0H97.43V258.86h10.83ZM94.93,258.86v20.89h-9.6V258.86Z"/></svg>